# xmcd CD database file
#
# Track frame offsets:
#	150
#	15033
#	41224
#	54377
#	68161
#	82490
#	105969
#	118515
#	132168
#	145038
#	198869
#	220489
#	242026
#	270770
#	283715
#	296872
#	309512
#	323444
#	337279
#
# Disc length: 4682 seconds
#
# Revision: 0
# Processed by: cddbd v1.5.2PL0 Copyright (c) Steve Scherf et al.
# Submitted via: CDex 1.70beta2
#
DISCID=18124813
DTITLE=Various Artist - The Story Of Big Bands 1914 - 1955 (7)
DYEAR=2006
DGENRE=Jazz
TTITLE0=Stan Kenton And His Orchestra, Intermission Riff
TTITLE1=Lionel hampton And His Orchestra, Rockin' In Rhythm
TTITLE2=Billy Eckstine And His Orchestra, Second Balcony Jump
TTITLE3=Boyd Raeburn And His Orchestra, Dalvatore Sally
TTITLE4=Count Basie And His Orchestra, The King
TTITLE5=Woody Herman And His Orchestra, Blowin' Up A Storm
TTITLE6=Dizzy Gillespie And His Orchestra, Things To Come
TTITLE7=Duke Ellington And His Orchestra, Transblucency
TTITLE8=Stan Kenton And His Orchestra, Opus In Pastels
TTITLE9=Woody Herman And His Orchestra, Summer Sequence
TTITLE10=Ralph Burns And His Orchestra, Introspection
TTITLE11=George Handy And His Orchestra, The Bloos
TTITLE12=Harry James And His Orchestra, Moten Swing
TTITLE13=Illinois Jacquet And His Orchestra, Jivin' With Jack The Bellboy
TTITLE14=Duke Ellington And His Orchestra, Hy'a Sue
TTITLE15=Dizzy Gillespie And His Orchestra, Two Bass Hit
TTITLE16=Claude Thornhill And His Orchestra, Anthropology
TTITLE17=Claude Thornhill And His Orchestra, Donna Lee
TTITLE18=Lionel Hampton And His Orchestra, Mingus Fingers
EXTD=YEAR: 2006
EXTT0=
EXTT1=
EXTT2=
EXTT3=
EXTT4=
EXTT5=
EXTT6=
EXTT7=
EXTT8=
EXTT9=
EXTT10=
EXTT11=
EXTT12=
EXTT13=
EXTT14=
EXTT15=
EXTT16=
EXTT17=
EXTT18=
PLAYORDER=
